HIERARCHY
ROOT Hips
{
  OFFSET 0 0 0
  CHANNELS 6 Xposition Yposition Zposition Zrotation Yrotation Xrotation
  JOINT LeftThigh
  {
    OFFSET 8.409438 0 -5.917753
    CHANNELS 3 Zrotation Yrotation Xrotation
    JOINT LeftLeg
    {
      OFFSET 0 0 -42.358652
      CHANNELS 3 Zrotation Yrotation Xrotation
      JOINT LeftFoot
      {
        OFFSET 0 0 -39.357303
        CHANNELS 3 Zrotation Yrotation Xrotation
      }
    }
  }
  JOINT RightThigh
  {
    OFFSET -8.409438 0 -5.917753
    CHANNELS 3 Zrotation Yrotation Xrotation
    JOINT RightLeg
    {
      OFFSET 0 0 -42.358652
      CHANNELS 3 Zrotation Yrotation Xrotation
      JOINT RightFoot
      {
        OFFSET 0 0 -39.357303
        CHANNELS 3 Zrotation Yrotation Xrotation
      }
    }
  }
  JOINT SpineLow
  {
    OFFSET 0 0 4.719101
    CHANNELS 3 Zrotation Yrotation Xrotation
    JOINT SpineMid
    {
      OFFSET 0 0 12.899191
      CHANNELS 3 Zrotation Yrotation Xrotation
      JOINT Chest
      {
        OFFSET 0 0 12.899191
        CHANNELS 3 Zrotation Yrotation Xrotation
        JOINT LeftShoulder
        {
          OFFSET 7.550562 1.41573 9.438202
          CHANNELS 3 Zrotation Yrotation Xrotation
          JOINT LeftArm
          {
            OFFSET 9.155056 0 4.247191
            CHANNELS 3 Zrotation Yrotation Xrotation
            JOINT LeftForearm
            {
              OFFSET 0 0 25.771955
              CHANNELS 3 Zrotation Yrotation Xrotation
              JOINT LeftHand
              {
                OFFSET 0 0 25.197169
                CHANNELS 3 Zrotation Yrotation Xrotation
              }
            }
          }
        }
        JOINT RightShoulder
        {
          OFFSET -7.550562 1.41573 9.438202
          CHANNELS 3 Zrotation Yrotation Xrotation
          JOINT RightArm
          {
            OFFSET -9.155056 0 4.247191
            CHANNELS 3 Zrotation Yrotation Xrotation
            JOINT RightForearm
            {
              OFFSET 0 0 -25.771955
              CHANNELS 3 Zrotation Yrotation Xrotation
              JOINT RightHand
              {
                OFFSET 0 0 -25.197169
                CHANNELS 3 Zrotation Yrotation Xrotation
              }
            }
          }
        }
        JOINT Neck
        {
          OFFSET 0 0 15.101124
          CHANNELS 3 Zrotation Yrotation Xrotation
          JOINT Head
          {
            OFFSET 0 0 11.325843
            CHANNELS 3 Zrotation Yrotation Xrotation
            End Site
            {
              OFFSET 0 0 14.157303
            }
          }
        }
      }
    }
  }
}
MOTION
Frames: 11
Frame Time: 0.0
0.0  93.25843  0.0  -1.498209  -19.568479  -89.614831  12.079915  -14.208879  0.669216  3.500777  -2.181956  9.282353  10.956651  1.672608  3.850859  -6.893105  1.80705  -9.688038  -0.001356  4.446902  5.373165  4.392461  1.436894  0.169082  1.754956  -2.02473  -0.132633  4.818452  -5.521368  -0.510576  4.818452  -5.521368  -0.510576  -33.302445  31.554565  -19.711797  133.630463  56.229634  -149.194351  -18.301195  2.080585  103.996049  76.726698  -12.721254  0.828581  1.191149  -0.234731  26.802007  54.191634  48.170691  -3.977224  1.029154  -20.753811  -124.465013  43.510214  3.526897  -20.619824  -5.501721  11.147199  8.725865  -4.275148  8.284953  6.625661  
0.0  93.25843  0.0  -1.463559  -19.960859  -89.625257  12.119071  -14.159866  0.69775  3.632309  -2.149681  9.365975  11.032727  1.704526  3.857004  -6.740651  1.744491  -9.82693  0.132263  4.529721  5.513289  4.443189  1.458802  0.156314  1.786901  -2.003386  -0.139173  4.906158  -5.46228  -0.529542  4.906157  -5.46228  -0.529542  -33.296882  31.457119  -19.642184  133.597704  56.138192  -149.265114  -18.114636  1.754411  103.384251  76.239811  -13.281115  0.537402  1.132862  -0.264739  26.746136  54.54203  48.135587  -3.820113  0.810147  -20.811381  -124.611768  43.437156  3.586264  -20.682617  -5.502021  11.096848  8.878663  -4.277591  8.245868  6.739635  
0.0  93.25843  0.0  -1.408672  -20.425935  -89.663759  12.574237  -14.067755  0.93023  3.755204  -2.103001  9.403928  10.835236  1.711773  3.644186  -6.48275  1.734778  -9.918997  0.484577  4.605981  5.692882  4.35902  1.440407  0.105325  1.850373  -1.979182  -0.135678  5.079332  -5.395821  -0.523339  5.079333  -5.395821  -0.523339  -33.223309  31.38759  -19.568998  133.222905  56.027153  -149.415946  -17.990174  1.201361  102.584302  75.751248  -13.84943  0.203299  0.574669  -0.255751  26.399382  55.601099  47.910881  -3.219382  0.53332  -20.807541  -124.717263  43.443634  3.603911  -20.796621  -5.599745  11.021958  9.007776  -4.352113  8.187171  6.837569  
0.0  93.25843  0.0  -1.392153  -20.762334  -89.65454  12.624634  -14.028611  0.961873  3.891527  -2.084415  9.457842  10.875538  1.740959  3.631655  -6.422408  1.680125  -10.026181  0.629817  4.660757  5.778411  4.390144  1.449399  0.096799  1.90181  -1.957689  -0.135503  5.219849  -5.336635  -0.525341  5.219849  -5.336634  -0.525341  -33.405801  31.223387  -19.606822  132.928833  55.920314  -149.610571  -17.960661  0.592838  101.984747  75.50725  -14.06467  -0.105596  0.439293  -0.282225  26.378397  55.806552  47.808436  -3.160885  0.316981  -20.738573  -124.797874  43.566433  3.5729  -20.891667  -5.704337  10.966874  9.132204  -4.431917  8.143235  6.932223  
0.0  93.25843  0.0  -1.404302  -21.023591  -89.663373  12.673113  -14.028023  1.051163  4.073619  -2.094163  9.532107  10.854902  1.786648  3.606993  -6.561865  1.585507  -10.109224  0.930869  4.7169  5.889487  4.466388  1.450576  0.084948  1.935464  -1.946526  -0.120168  5.310607  -5.307054  -0.485182  5.310607  -5.307054  -0.485182  -33.576552  31.033768  -19.769353  132.598245  55.697719  -149.748059  -17.99593  -0.209856  101.254778  75.355306  -14.281041  -0.280019  0.171264  -0.252435  26.138433  56.295759  47.586745  -2.927166  0.199609  -20.681677  -124.880615  43.765198  3.47603  -20.910667  -5.764051  10.913554  9.211771  -4.477341  8.101645  6.992508  
0.0  93.25843  0.0  -1.416032  -21.280001  -89.723384  12.678093  -14.049323  1.144626  4.195279  -2.066874  9.611626  10.89407  1.8129  3.596742  -6.60229  1.528767  -10.086374  1.059383  4.781026  5.942284  4.510393  1.444017  0.062182  1.971076  -1.940592  -0.093811  5.405937  -5.292681  -0.41542  5.405937  -5.292681  -0.41542  -33.735024  30.843263  -19.911713  132.280354  55.460497  -149.885607  -18.110786  -0.906856  100.909347  75.378234  -14.246536  -0.364934  0.186421  -0.261663  26.136557  56.316449  47.507242  -2.9719  0.160297  -20.643472  -124.945493  43.939434  3.402578  -20.839673  -5.839596  10.920077  9.250705  -4.53464  8.105073  7.023044  
0.0  93.25843  0.0  -1.476778  -21.404281  -89.824766  12.296638  -14.191292  1.158005  4.490644  -2.002225  9.841495  10.845846  1.839798  3.545988  -6.945566  1.410682  -10.055115  1.307727  4.845149  6.040407  4.637431  1.433562  0.058238  1.965507  -1.951038  -0.066989  5.388681  -5.323446  -0.342432  5.388681  -5.323446  -0.342432  -33.688547  30.740657  -20.020182  132.152968  55.233578  -149.979296  -17.985614  -0.730695  101.532508  76.099264  -13.566556  -0.580042  0.20072  -0.20166  26.104924  56.103015  47.4931  -3.245964  0.147533  -20.828034  -125.116916  43.829858  2.985802  -20.745385  -5.778264  10.942399  9.313594  -4.49022  8.122167  7.069078  
0.0  93.25843  0.0  -1.522318  -21.49009  -89.972915  12.143233  -14.345441  1.291995  4.645345  -1.894486  10.034316  10.85259  1.858013  3.526278  -7.185708  1.339282  -9.870554  1.476852  4.94299  6.061454  4.65609  1.404994  0.0372  1.970162  -1.962242  -0.025173  5.398198  -5.357431  -0.229292  5.398198  -5.357431  -0.229292  -33.774861  30.616448  -20.17153  132.016697  55.071748  -149.905642  -18.286891  -0.657572  101.594834  76.301889  -13.464924  -0.271266  0.293858  -0.136839  26.143509  56.294571  47.491359  -3.255215  0.02215  -20.912209  -125.118345  43.735893  2.933098  -20.529161  -5.797486  10.992579  9.301926  -4.505048  8.159638  7.060999  
0.0  93.25843  0.0  -1.626617  -21.498476  -90.071701  11.387475  -14.604017  1.107934  4.868517  -1.748572  10.3338  11.03832  1.889446  3.682446  -7.715286  1.192966  -9.734869  1.436601  5.037931  5.989509  5.05728  1.40512  0.106867  1.962482  -1.991681  -0.001446  5.375571  -5.439809  -0.166149  5.375571  -5.439808  -0.166149  -33.619232  30.676594  -20.234939  131.918006  54.890013  -149.743136  -18.483704  -0.164208  101.997454  76.421135  -13.20273  0.126733  0.137319  0.012881  26.075183  56.053  47.597128  -3.638179  0.32392  -21.291746  -125.254741  43.470332  2.655227  -20.214485  -5.731168  11.058558  9.355566  -4.457322  8.209656  7.100261  
0.0  93.25843  0.0  -1.700448  -21.426075  -90.159468  11.130766  -14.850856  1.094296  4.98522  -1.537753  10.696431  11.031787  1.890103  3.660665  -8.334047  1.085809  -9.608674  1.767715  5.149344  6.063138  5.137087  1.38735  0.092233  1.956148  -2.01887  0.004847  5.358006  -5.514609  -0.150626  5.358006  -5.514609  -0.150626  -33.617233  30.750628  -20.251331  131.937895  54.693031  -149.443799  -18.72392  0.114177  102.1321  76.2264  -13.309974  0.547344  0.253921  0.122399  26.318813  56.375079  47.646676  -3.568403  0.116966  -21.415841  -125.277015  43.25186  2.65614  -19.887732  -5.738768  11.160549  9.42493  -4.465669  8.285455  7.152842  
0.0  93.25843  0.0  -1.826922  -21.211411  -90.195078  9.847571  -15.276759  0.551692  5.08273  -1.234237  11.178182  11.660594  1.929931  4.174041  -9.370115  0.874636  -9.634373  1.480196  5.236552  6.02411  5.736562  1.437381  0.177429  1.942082  -2.052908  0.004283  5.319904  -5.607588  -0.153759  5.319904  -5.607588  -0.153758  -33.319964  30.919398  -20.18429  131.794398  54.358309  -149.201421  -18.84045  0.303034  102.323011  75.842849  -13.584847  0.950291  -0.246189  0.274913  26.134183  56.598301  47.694484  -3.63801  0.48968  -21.901711  -125.516226  43.001164  2.407831  -19.632717  -5.701047  11.234267  9.53698  -4.440569  8.340353  7.23632  
